<svg xmlns="http://www.w3.org/2000/svg" width="512" height="512" viewBox="0 0 512 512">
  <defs>
    <linearGradient id="bg" x1="0" y1="0" x2="1" y2="1">
      <stop offset="0%" stop-color="#ffd6e8"/>
      <stop offset="50%" stop-color="#e8d6ff"/>
      <stop offset="100%" stop-color="#d6eaff"/>
    </linearGradient>
  </defs>
  <rect width="512" height="512" fill="url(#bg)"/>

  <!-- artist palette -->
  <g transform="translate(256 250)">
    <path d="M0,-150 C95,-150 170,-85 170,0 C170,55 130,80 85,80 C55,80 45,60 45,40
             C45,15 25,10 5,25 C-20,45 -60,50 -95,30 C-145,2 -170,-40 -160,-85
             C-148,-130 -80,-150 0,-150 Z"
          fill="#fffdf7" stroke="#8b4bc7" stroke-width="14"/>
    <circle cx="-75" cy="-75" r="26" fill="#ff6f91"/>
    <circle cx="5" cy="-100" r="26" fill="#ffc75f"/>
    <circle cx="85" cy="-70" r="26" fill="#7ec8e3"/>
    <circle cx="-95" cy="-8" r="26" fill="#9ded9d"/>
  </g>

  <!-- paintbrush, diagonal -->
  <g transform="rotate(45 256 256)">
    <rect x="238" y="40" width="36" height="180" rx="16" fill="#c47a3d"/>
    <rect x="234" y="210" width="44" height="34" rx="8" fill="#d9d9de"/>
    <path d="M238,244 L274,244 L266,320 C264,338 248,338 246,320 Z" fill="#8b4bc7"/>
  </g>

  <!-- big A -->
  <text x="256" y="470" font-family="Marker Felt, Chalkboard SE, Comic Sans MS, sans-serif"
        font-size="120" font-weight="bold" fill="#8b4bc7" text-anchor="middle">A</text>
</svg>
